<svg width="960" height="640" viewBox="0 0 960 640" fill="none" xmlns="http://www.w3.org/2000/svg">
  <rect width="960" height="640" rx="40" fill="#F8FBFF"/>
  <circle cx="160" cy="126" r="54" fill="#DDEBFF"/>
  <circle cx="804" cy="104" r="38" fill="#F5E9FF"/>
  <circle cx="858" cy="178" r="18" fill="#CFF8F1"/>
  <rect x="78" y="90" width="510" height="380" rx="30" fill="white" stroke="#DDE6F6" stroke-width="2"/>
  <rect x="104" y="118" width="178" height="18" rx="9" fill="#E6EEF8"/>
  <rect x="104" y="154" width="112" height="12" rx="6" fill="#DCE6F5"/>
  <rect x="104" y="198" width="216" height="168" rx="24" fill="#EAF2FF"/>
  <rect x="348" y="198" width="210" height="76" rx="22" fill="#F4EEFF"/>
  <rect x="348" y="290" width="210" height="76" rx="22" fill="#E7FAF5"/>
  <rect x="104" y="388" width="454" height="54" rx="20" fill="#F9FBFE"/>
  <path d="M166 300L214 248L256 286L302 236" stroke="#4F7CFF" stroke-width="14" stroke-linecap="round" stroke-linejoin="round"/>
  <circle cx="166" cy="300" r="12" fill="#4F7CFF"/>
  <circle cx="214" cy="248" r="12" fill="#8D66FF"/>
  <circle cx="256" cy="286" r="12" fill="#00A985"/>
  <circle cx="302" cy="236" r="12" fill="#4F7CFF"/>
  <rect x="632" y="124" width="246" height="328" rx="34" fill="white" stroke="#DDE6F6" stroke-width="2"/>
  <rect x="692" y="148" width="126" height="18" rx="9" fill="#EEF3FF"/>
  <rect x="668" y="194" width="176" height="78" rx="26" fill="#EEF4FF"/>
  <rect x="668" y="288" width="176" height="62" rx="24" fill="#F4EEFF"/>
  <rect x="668" y="366" width="176" height="46" rx="18" fill="#E8FBF5"/>
  <circle cx="726" cy="234" r="26" fill="#4F7CFF"/>
  <rect x="768" y="216" width="50" height="12" rx="6" fill="#C5D5FF"/>
  <rect x="768" y="238" width="34" height="12" rx="6" fill="#D6E0F4"/>
  <path d="M721 233L729 241L743 226" stroke="white" stroke-width="6" stroke-linecap="round" stroke-linejoin="round"/>
  <path d="M762 435C706 445 644 489 606 550" stroke="#D5E1F8" stroke-width="4" stroke-dasharray="12 12"/>
  <path d="M170 498C246 484 310 498 374 548" stroke="#E2E7F3" stroke-width="4" stroke-dasharray="10 14"/>
  <circle cx="598" cy="560" r="24" fill="#EAF2FF"/>
  <circle cx="394" cy="564" r="24" fill="#F5E9FF"/>
</svg>