<svg width="420" height="780" viewBox="0 0 420 780" fill="none" xmlns="http://www.w3.org/2000/svg">
  <rect x="54" y="18" width="312" height="744" rx="42" fill="#0F172A"/>
  <rect x="66" y="32" width="288" height="716" rx="34" fill="#F8FBFF"/>
  <rect x="154" y="46" width="112" height="20" rx="10" fill="#D6DFEE"/>
  <rect x="94" y="96" width="232" height="158" rx="28" fill="#EAF2FF"/>
  <rect x="116" y="118" width="120" height="16" rx="8" fill="#BFD2FF"/>
  <rect x="116" y="148" width="188" height="12" rx="6" fill="#D5E1F3"/>
  <rect x="116" y="176" width="172" height="12" rx="6" fill="#D5E1F3"/>
  <circle cx="272" cy="176" r="26" fill="#4F7CFF"/>
  <path d="M262 176L270 184L284 169" stroke="white" stroke-width="6" stroke-linecap="round" stroke-linejoin="round"/>
  <rect x="94" y="278" width="108" height="92" rx="24" fill="#F4EEFF"/>
  <rect x="218" y="278" width="108" height="92" rx="24" fill="#E7FAF5"/>
  <rect x="94" y="388" width="232" height="94" rx="28" fill="white" stroke="#DFE7F4" stroke-width="2"/>
  <rect x="114" y="414" width="118" height="12" rx="6" fill="#C9D7F1"/>
  <rect x="114" y="438" width="92" height="12" rx="6" fill="#D7E0EF"/>
  <rect x="94" y="502" width="232" height="176" rx="28" fill="#FFFFFF" stroke="#DFE7F4" stroke-width="2"/>
  <path d="M122 620L166 574L210 606L258 544L298 586" stroke="#4F7CFF" stroke-width="10" stroke-linecap="round" stroke-linejoin="round"/>
</svg>